<svg class="me-md-3 two-col-logo d-none" width="54" height="54" viewBox="0 0 54 54" fill="none" xmlns="http://www.w3.org/2000/svg">
<path d="M19.4463 16.492L13.3197 21.0746L26.9095 33.2783L26.949 33.2421H27.0642L40.6901 21.1503L34.8006 16.515L19.4496 16.492H19.4463ZM27.3802 31.1977L15.8744 20.8474L20.4537 17.4368L33.9743 17.4566L38.8037 21.1799L27.3802 31.1944V31.1977Z" fill="#917F6A"/>
<path d="M21.6191 18.352L17.4118 21.4564L27.1201 30.052L36.9272 21.2655L32.9932 18.3652L21.6158 18.3487L21.6191 18.352ZM27.344 28.5377L19.3311 21.3149L22.5606 18.8886L32.3908 18.9018L35.5051 21.4828L27.3473 28.5377H27.344Z" fill="#917F6A"/>
<path d="M23.7194 19.6853L20.8257 21.733L27.1333 27.3624L33.6187 21.6737L30.9982 19.6952L23.7227 19.6853H23.7194ZM27.2716 26.3386L22.2907 21.891L24.5063 20.1857L30.5505 20.1923L32.4237 21.7527L27.2683 26.3386H27.2716Z" fill="#917F6A"/>
<path d="M31.0246 40.2411L33.0163 38.4732L33.0229 33.4495L31.0246 35.1318V40.2411Z" fill="#917F6A"/>
<path d="M20.8455 40.2279L22.8339 38.4567L22.8438 33.4363L20.8422 35.1153L20.8455 40.2279Z" fill="#917F6A"/>
<path d="M26.9095 33.2783L23.1269 36.8765V40.2575H27.1531L30.646 36.7942V35.0823H29.0296L30.9126 33.2486L27.0576 33.2421L26.9589 33.3277L26.9029 33.2783L26.9095 33.2783ZM28.9604 35.079L26.8634 36.8173H28.8551V38.5028L25.0922 38.4962L25.0988 35.0725H25.2996L28.9604 35.079Z" fill="#917F6A"/>
<path d="M20.7994 3.9294L22.8503 0.499057L24.9935 2.38213L25.4379 2.77388L25.8527 3.13601L27.0444 4.18289L28.2362 3.1393L28.651 2.77717L29.0954 2.38542L31.2451 0.508933L32.7035 2.96482L32.8352 3.18868L33.0031 3.4751L33.2862 3.94916L34.0961 5.31208L35.5545 4.68987L36.0615 4.4726L36.6046 4.23886L39.2284 3.11626L39.8539 5.90136L39.9099 6.15485L40.1008 7.01408L40.4498 8.56136L42.03 8.4198L42.3032 8.39346L42.5765 8.37042L46.0068 8.06096L45.7435 10.902L45.6908 11.4913L45.6381 12.0378L45.49 13.618L47.0373 13.9702L47.5706 14.0953L47.8965 14.1711L48.15 14.227L50.9318 14.8624L49.5689 18.0261L49.3516 18.5331L48.7228 19.9882L53.5161 22.8523L51.633 24.9954L51.2412 25.4398L50.8791 25.8546L49.8322 27.0464L51.2379 28.6562L51.6297 29.1006L53.5062 31.2504L51.0503 32.7055L50.8264 32.8371L50.303 33.1499L50.066 33.2882L48.703 34.098L49.3253 35.5564L49.5425 36.0634L49.7763 36.6066L50.8989 39.2304L48.1138 39.8559L47.8603 39.9118L47.5344 39.9842L47.2644 40.0435L46.9977 40.1028L45.4505 40.4517L45.592 42.0319L45.6184 42.3052L45.6414 42.5784L45.9509 46.0087L43.1098 45.7454L42.5205 45.6927L41.974 45.64L40.3938 45.4919L40.0416 47.0359L39.9165 47.5692L39.8441 47.8951L39.7881 48.1453L39.1527 50.9271L35.989 49.5642L35.7355 49.4555L35.4853 49.3469L34.0302 48.7181L31.1661 53.5081L29.023 51.625L28.5786 51.2333L28.1638 50.8711L26.972 49.8243L25.3622 51.23L25.112 51.4473L24.9178 51.6184L22.768 53.4949L21.3129 51.039L20.7269 50.058L19.9171 48.6951L18.4587 49.3173L17.9517 49.5346L17.4085 49.7683L14.7847 50.8909L14.1592 48.1058L14.1033 47.8523L13.9123 46.9931L13.5634 45.4458L11.9832 45.5874L11.7099 45.6104L11.4367 45.6367L8.00634 45.9462L8.26971 43.1051L8.32238 42.5159L8.37505 41.9694L8.5232 40.3925L6.97921 40.0402L6.44589 39.9151L6.11998 39.8427L5.86649 39.7867L3.08468 39.1513L4.4476 35.9877L4.55624 35.7375L4.66488 35.484L5.29367 34.0289L3.93074 33.2157L3.69701 33.0742L3.17357 32.7614L2.9497 32.6297L0.500396 31.1648L2.38347 29.0216L2.77522 28.5772L3.13735 28.1624L4.18424 26.9707L2.77852 25.3608L2.38676 24.9164L0.510273 22.7667L2.96617 21.3116L3.19003 21.1799L3.9505 20.7256L5.31342 19.9157L4.69122 18.4573L4.47394 17.9504L4.2402 17.4072L3.1176 14.7834L5.9027 14.1579L6.15619 14.1019L6.48211 14.0295L6.75206 13.9702L7.01872 13.911L8.566 13.562L8.42443 11.9818L8.3981 11.7086L8.37505 11.4353L8.0656 8.00499L10.9067 8.26836L11.4959 8.32103L12.0424 8.37371L13.6226 8.52185L13.9749 6.97457L14.0341 6.70792L14.0967 6.44126L14.1691 6.11534L14.2251 5.86185L14.8605 3.08005L18.0241 4.44297L18.5311 4.66024L19.9862 5.28903L20.7994 3.92611V3.9294ZM22.768 0.00195312L20.9771 2.99774L18.7978 1.61836L17.8398 4.0117L14.6333 2.62903L13.9156 5.78284L13.8597 6.03633L11.361 5.39767L11.1865 7.96878L10.9297 7.94574L7.71005 7.64616L8.0228 11.1226L5.44839 11.2872L6.07718 13.7859L5.82369 13.8418L2.66988 14.5529L3.94062 17.5257L4.04268 17.7627L1.64604 18.7141L3.01884 20.8968L2.79827 21.0285L0.0164604 22.6778L2.14314 25.1106L2.31433 25.3049L0.329208 26.9509L2.30775 28.6035L2.13656 28.7978L0 31.2273L2.99579 33.0182L1.61641 35.1976L4.00975 36.1588L2.62708 39.3653L5.78089 40.0863L6.03438 40.1423L5.39572 42.6409L7.97013 42.8154L7.94708 43.0722L7.6475 46.2919L11.1239 45.9791L11.2885 48.5535L13.7905 47.9214L13.8465 48.1749L14.5543 51.3287L17.527 50.058L17.7641 49.9559L18.7155 52.3526L20.8981 50.9798L21.0298 51.2004L22.6791 53.9822L25.1153 51.8555L25.3095 51.6843L26.9556 53.6694L28.6082 51.6909L28.8024 51.8621L31.232 53.9986L33.0229 51.0028L35.2022 52.3822L36.1635 49.9889L39.37 51.3715L40.0877 48.2177L40.1436 47.9675L42.6423 48.6062L42.8168 46.0318L43.0736 46.0548L46.2932 46.3544L45.9805 42.878L48.5549 42.7134L47.9228 40.2114L48.1763 40.1554L51.3301 39.4443L50.0594 36.4716L49.9573 36.2346L52.354 35.2832L50.9812 33.1005L51.205 32.9688L53.9868 31.3195L51.8602 28.8834L51.689 28.6891L53.6741 27.0431L51.6955 25.3905L51.8667 25.1962L54 22.77L51.0042 20.9791L52.3836 18.7997L49.9903 17.8417L51.3729 14.6352L48.2191 13.9143L47.9656 13.8583L48.6043 11.3596L46.0299 11.1851L46.0529 10.9284L46.3525 7.70871L42.8761 8.02146L42.7115 5.44705L40.2128 6.07584L40.1568 5.82235L39.449 2.66854L36.4763 3.93928L36.2392 4.04133L35.2878 1.6447L33.1052 3.0175L32.9735 2.79693L31.3242 0.0151214L28.888 2.1418L28.6938 2.31299L27.0477 0.327869L25.3951 2.30641L25.2009 2.13522L22.7713 0.00195312H22.768Z" fill="#917F6A"/>
<path d="M51.284 29.3673L50.8923 28.9229L49.2462 27.0398L50.5367 25.5748L50.7178 25.3674L50.8989 25.1633L51.2906 24.7189L52.8412 22.9543L48.1697 20.1626L48.9434 18.3718L49.1606 17.8648L50.3227 15.1653L48.0315 14.6418L47.778 14.5859L47.4521 14.5134L46.9187 14.3883L45.0159 13.9538L45.197 12.0115L45.2496 11.465L45.3023 10.8757L45.5196 8.53832L42.5929 8.80168L42.3197 8.82473L42.0465 8.85107L40.1041 9.02555L39.6762 7.12273L39.4852 6.26349L39.4293 6.01L38.9124 3.71872L36.7528 4.6405L36.2096 4.87424L33.9084 5.85857L32.9109 4.17961L32.6278 3.70555L32.4599 3.41914L32.3282 3.19528L31.1299 1.17394L29.3621 2.71792L28.9176 3.10968L27.0346 4.75572L25.5696 3.46523L25.1548 3.1031L24.7104 2.71134L22.9458 1.16077L20.1541 5.83223L18.3632 5.05859L17.8562 4.84131L15.1567 3.67921L14.6333 5.96721L14.5773 6.22069L14.5016 6.54661L14.3765 7.07993L13.942 8.98275L11.9996 8.80168L11.4532 8.74901L10.8639 8.69634L8.52649 8.47906L8.78986 11.4057L8.81619 11.679L8.83924 11.9522L9.01372 13.8945L7.11089 14.3225L6.84424 14.3818L6.57429 14.441L6.24837 14.5134L5.99488 14.5694L3.70359 15.0863L4.62537 17.2459L4.85911 17.7891L5.84344 20.0902L4.16448 21.0844L3.69042 21.3675L3.40401 21.5354L3.18015 21.6671L1.1621 22.8654L2.70609 24.6333L3.09785 25.0777L4.74389 26.9608L3.45669 28.4258L3.09456 28.8406L2.7028 29.285L1.15223 31.0495L5.82369 33.8412L5.05005 35.6321L4.83278 36.1391L3.67067 38.8386L5.95867 39.362L6.21216 39.418L6.53807 39.4937L7.07139 39.6188L8.97421 40.0534L8.79315 41.9957L8.74047 42.5422L8.6878 43.1315L8.47052 45.4688L11.3972 45.2055L11.6704 45.1791L11.9437 45.1561L13.886 44.9816L14.314 46.8844L14.3732 47.1511L14.4325 47.4211L14.5049 47.747L14.5609 48.0005L15.0777 50.2917L17.2373 49.37L17.7805 49.1362L20.0817 48.1519L21.0759 49.8309L21.6619 50.8119L22.8602 52.8332L24.6281 51.2892L25.0725 50.8975L26.9589 49.2515L28.4238 50.5387L28.6279 50.7197L28.8353 50.9008L31.041 52.8431L33.8327 48.1716L35.6236 48.942L36.1306 49.1593L38.8301 50.3214L39.3535 48.0334L39.4095 47.7799L39.4852 47.454L39.5478 47.1873L39.607 46.9207L40.0416 45.0178L41.9839 45.1989L42.5304 45.2516L43.1197 45.3042L45.4571 45.5215L45.1937 42.5949L45.1476 42.0484L44.9731 40.1061L46.8759 39.6781L47.1426 39.6188L47.4126 39.5596L47.7385 39.4871L47.992 39.4312L50.2832 38.9143L49.3615 36.7547L49.1277 36.2115L48.1434 33.9104L49.8224 32.9162L50.5828 32.4618L50.8067 32.3302L52.8247 31.1318L51.2807 29.364L51.284 29.3673ZM5.5274 26.974C5.54386 15.1126 15.1765 5.5129 27.0379 5.52936C38.8992 5.54582 48.4989 15.1784 48.4792 27.0398C48.4627 38.9012 38.8301 48.5009 26.972 48.4844C15.1107 48.4679 5.50765 38.8353 5.5274 26.974Z" fill="#917F6A"/>
<path d="M47.5541 27.0332C47.5705 15.7018 38.3692 6.47086 27.0378 6.4544C15.7065 6.43794 6.47221 15.6426 6.45575 26.9706C6.43929 38.302 15.6439 47.533 26.9753 47.5494C38.3066 47.5659 47.5376 38.3645 47.5541 27.0332ZM6.78166 26.9706C6.79812 15.8171 15.8843 6.75727 27.0378 6.77702C38.1881 6.79348 47.2479 15.8796 47.2315 27.0332C47.215 38.1867 38.1289 47.2432 26.9786 47.2268C15.825 47.2103 6.7652 38.1242 6.78166 26.9706Z" fill="#917F6A"/>
<path d="M26.949 33.2421L26.9095 33.2783L26.9654 33.3277L27.0642 33.2421H26.949Z" fill="#917F6A"/>
<path d="M23.9494 45.0837H23.4209V42.6898H22.9309V42.2751H23.9494V45.0837Z" fill="#917F6A"/>
<path d="M26.3567 43.2299C26.3567 43.0898 26.3117 42.9708 26.2217 42.8731C26.1317 42.7741 26.0237 42.7245 25.8976 42.7245C25.7652 42.7245 25.6552 42.7708 25.5678 42.8634C25.4816 42.9547 25.4386 43.0718 25.4386 43.2145C25.4386 43.356 25.481 43.4723 25.5659 43.5636C25.6507 43.6549 25.7588 43.7006 25.8899 43.7006C26.0185 43.7006 26.1285 43.6543 26.2198 43.5617C26.3111 43.4691 26.3567 43.3585 26.3567 43.2299ZM25.8784 45.0837H25.3055L25.942 44.1269C25.8919 44.1372 25.8507 44.1449 25.8186 44.15C25.7864 44.1539 25.7562 44.1558 25.7279 44.1558C25.4977 44.1558 25.3022 44.0639 25.1415 43.88C24.982 43.6961 24.9023 43.4717 24.9023 43.2068C24.9023 43.0988 24.9235 42.9882 24.966 42.875C25.0097 42.7618 25.0688 42.6602 25.1434 42.5702C25.245 42.4506 25.3563 42.3632 25.4771 42.3079C25.5993 42.2513 25.7395 42.223 25.8976 42.223C26.0327 42.223 26.16 42.2475 26.2796 42.2963C26.3992 42.3452 26.5053 42.4159 26.5979 42.5085C26.6892 42.5998 26.7599 42.704 26.81 42.821C26.8602 42.938 26.8853 43.0576 26.8853 43.1798C26.8853 43.3187 26.8583 43.4588 26.8043 43.6003C26.7502 43.7405 26.6454 43.9269 26.4898 44.1597L25.8784 45.0837Z" fill="#917F6A"/>
<path d="M28.0388 45.0837H27.4775L28.5249 42.7689H27.4273V42.2751H29.0341V42.7959L28.0388 45.0837Z" fill="#917F6A"/>
<path d="M31.1888 42.2751V42.7612H30.2243L30.1375 43.2434C30.1954 43.21 30.2564 43.1849 30.3207 43.1682C30.385 43.1515 30.4526 43.1431 30.5233 43.1431C30.7818 43.1431 31.0017 43.2396 31.183 43.4325C31.3656 43.6254 31.4569 43.8581 31.4569 44.1308C31.4569 44.2542 31.435 44.3725 31.3913 44.4857C31.3489 44.5976 31.2865 44.7004 31.2042 44.7943C31.1052 44.91 30.992 44.9975 30.8647 45.0566C30.7387 45.1145 30.6017 45.1434 30.4538 45.1434C30.1876 45.1434 29.9626 45.0573 29.7787 44.885C29.5961 44.7114 29.4932 44.4863 29.4701 44.2098H29.9986C30.014 44.3359 30.0635 44.4381 30.1471 44.5165C30.2307 44.595 30.3317 44.6342 30.45 44.6342C30.5786 44.6342 30.6853 44.5866 30.7702 44.4915C30.8563 44.395 30.8994 44.2735 30.8994 44.1269C30.8994 43.9816 30.8563 43.8646 30.7702 43.7758C30.684 43.6858 30.5702 43.6408 30.4288 43.6408C30.3439 43.6408 30.2706 43.6582 30.2089 43.6929C30.1484 43.7263 30.0996 43.7765 30.0623 43.8433L29.5955 43.7372L29.8636 42.2751H31.1888Z" fill="#917F6A"/>
<path d="M17.9817 40.4997L16.371 42.8301L15.9389 42.5315L17.5496 40.201L17.9817 40.4997Z" fill="#917F6A"/>
<path d="M16.9095 39.7675L15.001 41.8612L14.5656 41.4642L15.0742 39.1919L15.1218 39.1046L13.6946 40.6703L13.3036 40.3139L15.212 38.2202L15.6445 38.6145L15.1439 40.8781L15.1021 40.9707L16.5213 39.4137L16.9095 39.7675Z" fill="#917F6A"/>
<path d="M14.5023 37.427L12.6944 38.8879L13.0214 39.2926L12.6259 39.6121L11.6368 38.3882L12.0323 38.0686L12.3643 38.4794L14.1723 37.0185L14.5023 37.427Z" fill="#917F6A"/>
<path d="M13.5906 36.1757L11.1816 37.6665L10.381 36.3727L10.8134 36.1052L11.3376 36.9523L11.8931 36.6085L11.3922 35.7991L11.8246 35.5316L12.3255 36.341L12.8818 35.9967L12.3576 35.1496L12.79 34.882L13.5906 36.1757Z" fill="#917F6A"/>
<path d="M12.4382 34.2858L9.84023 35.4154L9.51333 34.6636C9.4413 34.4979 9.39696 34.3589 9.38033 34.2465C9.36283 34.1338 9.36983 34.0222 9.40134 33.9118C9.43691 33.786 9.5006 33.6706 9.59243 33.5655C9.68426 33.4604 9.78891 33.3823 9.90638 33.3312C10.0052 33.2882 10.1164 33.2639 10.2399 33.2581C10.3627 33.2521 10.4726 33.2652 10.5697 33.2974C10.6515 33.3242 10.7275 33.3646 10.7975 33.4186C10.8719 33.4744 10.9468 33.5518 11.0221 33.6509L11.6752 32.5309L11.9329 33.1237L11.233 34.2372L12.2288 33.8042L12.4382 34.2858ZM10.867 34.3963L10.7526 34.1333C10.6819 33.9707 10.5944 33.8608 10.4901 33.8037C10.3855 33.7461 10.2705 33.7445 10.1452 33.799C10.0247 33.8513 9.94759 33.9408 9.91375 34.0672C9.89804 34.1299 9.89493 34.1879 9.90444 34.241C9.91369 34.2936 9.93927 34.3681 9.98118 34.4645L10.0971 34.731L10.867 34.3963Z" fill="#917F6A"/>
<path d="M11.4798 32.0026L8.729 32.6798L8.58814 32.1077L10.2754 30.503L10.3635 30.4569L8.30643 30.9633L8.17995 30.4495L10.9307 29.7723L11.0706 30.3407L9.39484 31.9426L9.30861 31.9963L11.3542 31.4927L11.4798 32.0026Z" fill="#917F6A"/>
<path d="M10.8497 29.2689L7.9577 28.2438L7.93569 27.8335L10.7007 26.4922L10.7317 27.0688L10.019 27.4139L10.0728 28.4175L10.8188 28.6933L10.8497 29.2689ZM9.6099 28.3052L9.5729 27.6154L8.70803 27.9934L8.60344 28.0118L8.70935 28.018L9.6099 28.3052Z" fill="#917F6A"/>
<path d="M10.8107 25.6719L8.49738 25.4443L8.44643 25.9621L7.94042 25.9123L8.09453 24.3462L8.60053 24.396L8.54881 24.9216L10.8621 25.1492L10.8107 25.6719Z" fill="#917F6A"/>
<path d="M10.9973 24.1292L8.21845 23.5785L8.32055 23.0633L11.0994 23.614L10.9973 24.1292Z" fill="#917F6A"/>
<path d="M8.94979 20.6365C9.04257 20.3767 9.18948 20.1606 9.39053 19.9883C9.59118 19.8151 9.82073 19.7045 10.0792 19.6566C10.3379 19.6081 10.5949 19.6294 10.8505 19.7207C11.101 19.8101 11.3108 19.9551 11.4798 20.1557C11.6482 20.356 11.7563 20.5857 11.804 20.8448C11.8513 21.1031 11.8303 21.3571 11.7411 21.6071C11.6516 21.8576 11.5068 22.0678 11.3066 22.2377C11.1061 22.4067 10.8771 22.5158 10.6196 22.5647C10.3618 22.6129 10.1076 22.5922 9.85706 22.5027C9.60836 22.4139 9.39877 22.2693 9.22827 22.069C9.05778 21.8686 8.94688 21.641 8.89556 21.3862C8.84446 21.1308 8.86254 20.8809 8.94979 20.6365ZM9.44354 20.7658C9.38345 20.934 9.36835 21.1023 9.39824 21.2706C9.42772 21.4381 9.49739 21.5868 9.60725 21.7167C9.71712 21.8466 9.85556 21.9414 10.0226 22.001C10.1865 22.0596 10.3538 22.0736 10.5244 22.0432C10.695 22.0127 10.8466 21.9437 10.9792 21.8362C11.1113 21.7278 11.2057 21.5945 11.2622 21.4361C11.319 21.2771 11.3302 21.114 11.2957 20.9469C11.2614 20.7791 11.188 20.6291 11.0755 20.4968C10.9624 20.3643 10.8245 20.2691 10.6618 20.211C10.5015 20.1538 10.3379 20.1403 10.1708 20.1706C10.0031 20.2007 9.85395 20.2688 9.72329 20.3749C9.59202 20.4808 9.49876 20.6111 9.44354 20.7658Z" fill="#917F6A"/>
<path d="M12.4626 19.6361L10.0366 18.1732L10.3409 17.6686L12.6687 17.7237L12.7636 17.7534L10.9494 16.6594L11.2227 16.2063L13.6486 17.6691L13.3464 18.1704L11.0287 18.1213L10.9297 18.0984L12.7338 19.1863L12.4626 19.6361Z" fill="#917F6A"/>
<path d="M13.9619 17.2332L12.6386 14.4678L12.9125 14.1619L15.8153 15.1633L15.4304 15.5931L14.6827 15.3346L14.0128 16.0827L14.3461 16.8041L13.9619 17.2332ZM13.7645 15.6767L14.2248 15.1625L13.3462 14.8199L13.2592 14.7592L13.3298 14.8382L13.7645 15.6767Z" fill="#917F6A"/>
<path d="M16.2192 14.8289L14.4257 12.6391L14.8316 12.3066L16.3033 14.1033L16.9705 13.5568L17.2924 13.9499L16.2192 14.8289Z" fill="#917F6A"/>
<path d="M20.4198 9.93793L19.8506 10.206C19.7641 10.164 19.6946 10.1358 19.6421 10.1214C19.5896 10.1069 19.5261 10.0984 19.4515 10.0958C19.291 10.0938 19.1457 10.1234 19.0156 10.1846C18.8583 10.2587 18.7302 10.3673 18.6314 10.5103C18.533 10.6525 18.4752 10.8095 18.4583 10.9815C18.4416 11.1526 18.4695 11.315 18.542 11.4688C18.6147 11.6232 18.7243 11.7489 18.8709 11.846C19.0175 11.9431 19.1794 11.9996 19.3567 12.0155C19.534 12.0315 19.7016 12.0022 19.8595 11.9278C20.0727 11.8274 20.2274 11.6606 20.3236 11.4274C20.3604 11.3469 20.3846 11.2405 20.3963 11.108L19.3239 11.6131L19.1145 11.1687L20.7855 10.3817L20.8111 10.436C20.9232 10.6741 20.966 10.9228 20.9393 11.182C20.913 11.4403 20.8233 11.6774 20.6703 11.8931C20.5169 12.1083 20.3165 12.2742 20.0689 12.3908C19.8207 12.5077 19.5636 12.5566 19.2978 12.5374C19.0322 12.5174 18.7899 12.4341 18.5708 12.2878C18.3513 12.1408 18.185 11.9478 18.0717 11.7088C17.9579 11.4671 17.9135 11.2141 17.9384 10.9499C17.964 10.6854 18.0534 10.4438 18.2065 10.2251C18.3599 10.0055 18.559 9.83815 18.8036 9.72293C18.9224 9.667 19.0494 9.62711 19.1848 9.60328C19.3198 9.57885 19.455 9.57248 19.5904 9.58417C19.7261 9.59499 19.8581 9.62349 19.9865 9.66967C20.1213 9.72157 20.2657 9.81099 20.4198 9.93793Z" fill="#917F6A"/>
<path d="M21.9962 11.5302L21.2502 8.79971L22.7166 8.3991L22.8505 8.88916L21.8903 9.15148L22.0624 9.78116L22.9798 9.53052L23.1137 10.0206L22.1962 10.2712L22.3685 10.9019L23.3287 10.6395L23.4626 11.1296L21.9962 11.5302Z" fill="#917F6A"/>
<path d="M24.1344 10.9565L23.8906 8.13642L24.6018 8.07495L25.5416 10.0986L25.5885 10.2645L25.6063 10.093L26.1251 7.94329L26.8362 7.88182L27.08 10.7019L26.5572 10.7471L26.3745 8.63423L25.8264 10.8102L25.384 10.8485L24.4746 8.79845L24.6572 10.9113L24.1344 10.9565Z" fill="#917F6A"/>
<path d="M29.4681 8.03994C29.7413 8.07644 29.9831 8.17497 30.1934 8.3355C30.4045 8.49548 30.5604 8.69676 30.661 8.93933C30.7624 9.18199 30.7951 9.43766 30.7592 9.70635C30.724 9.96984 30.626 10.2051 30.4653 10.4121C30.3046 10.6184 30.1027 10.7718 29.8594 10.8725C29.6169 10.9725 29.3643 11.005 29.1014 10.9698C28.838 10.9346 28.6024 10.8369 28.3946 10.6768C28.1877 10.516 28.0334 10.3149 27.9319 10.0736C27.8311 9.83166 27.7983 9.57895 27.8335 9.31547C27.8685 9.05393 27.9661 8.81898 28.1264 8.61061C28.2866 8.40225 28.4859 8.24644 28.7242 8.14318C28.9631 8.04002 29.2111 8.0056 29.4681 8.03994ZM29.4447 8.54935C29.2677 8.52571 29.1001 8.54603 28.9419 8.61031C28.7844 8.67403 28.6536 8.7731 28.5496 8.90753C28.4455 9.04196 28.3818 9.19701 28.3583 9.37267C28.3353 9.54507 28.3564 9.71146 28.4217 9.87183C28.4871 10.0322 28.5861 10.1659 28.7188 10.2731C28.8522 10.3796 29.0022 10.444 29.1687 10.4663C29.3359 10.4886 29.4976 10.4655 29.6538 10.397C29.8106 10.3286 29.9419 10.2256 30.0477 10.0881C30.1535 9.94991 30.2179 9.79528 30.2408 9.62417C30.2633 9.45567 30.2423 9.29295 30.1779 9.13601C30.1135 8.97841 30.0158 8.84683 29.8849 8.74127C29.7541 8.63506 29.6074 8.57108 29.4447 8.54935Z" fill="#917F6A"/>
<path d="M31.1974 11.2975L32.0302 8.59225L32.5317 8.74663L31.8484 10.9664L32.6727 11.2201L32.5232 11.7057L31.1974 11.2975Z" fill="#917F6A"/>
<path d="M35.4712 9.86462C35.718 9.98798 35.9149 10.1598 36.0618 10.3801C36.2095 10.6002 36.2917 10.8414 36.3082 11.1037C36.3252 11.3663 36.2731 11.619 36.1518 11.8617C36.0328 12.0996 35.8636 12.2905 35.6442 12.4341C35.425 12.5772 35.184 12.6569 34.9211 12.673C34.659 12.6889 34.4093 12.6375 34.1719 12.5189C33.934 12.3999 33.7427 12.2309 33.5981 12.0117C33.4545 11.7923 33.3738 11.5518 33.3561 11.2904C33.3394 11.0286 33.3905 10.7787 33.5094 10.5408C33.6275 10.3046 33.7963 10.1139 34.0157 9.96874C34.2351 9.8236 34.4744 9.74088 34.7335 9.72058C34.9932 9.70059 35.2391 9.7486 35.4712 9.86462ZM35.2835 10.3392C35.1237 10.2593 34.9585 10.2241 34.7878 10.2335C34.618 10.2426 34.462 10.2939 34.3198 10.3874C34.1776 10.4808 34.0669 10.6068 33.9876 10.7655C33.9097 10.9212 33.8757 11.0856 33.8854 11.2586C33.8951 11.4316 33.9453 11.5904 34.0361 11.7349C34.1278 11.8792 34.2488 11.9889 34.3993 12.0641C34.5503 12.1396 34.7108 12.1703 34.8809 12.1561C35.0516 12.1423 35.2094 12.0875 35.3542 11.9917C35.4993 11.8954 35.6105 11.7699 35.6877 11.6154C35.7638 11.4632 35.7969 11.3023 35.7868 11.1328C35.7771 10.9627 35.7275 10.8064 35.6379 10.664C35.5485 10.5209 35.4304 10.4127 35.2835 10.3392Z" fill="#917F6A"/>
<path d="M39.4876 13.6145L38.9952 13.2221C38.9946 13.1258 38.9892 13.051 38.979 12.9974C38.9687 12.9439 38.9483 12.8831 38.9177 12.815C38.8485 12.67 38.7577 12.5526 38.6452 12.4629C38.5091 12.3544 38.3549 12.2874 38.1829 12.262C38.0117 12.2364 37.8452 12.2541 37.6833 12.3149C37.5223 12.3756 37.3888 12.4725 37.2827 12.6055C37.1763 12.739 37.1119 12.8931 37.0895 13.0676C37.0671 13.2422 37.088 13.4126 37.1521 13.5788C37.2162 13.7449 37.3166 13.8825 37.4532 13.9914C37.6376 14.1384 37.8558 14.2035 38.1077 14.1868C38.1963 14.1843 38.3026 14.159 38.4266 14.1108L37.4989 13.3713L37.8054 12.9868L39.2509 14.1391L39.2134 14.1861C39.0492 14.3921 38.8449 14.5404 38.6003 14.6311C38.3567 14.7217 38.1042 14.746 37.8429 14.704C37.5819 14.6615 37.3443 14.5548 37.1301 14.3841C36.9154 14.2129 36.7579 14.0038 36.6575 13.7566C36.5581 13.5093 36.5256 13.2549 36.5602 12.9935C36.5951 12.7315 36.6948 12.4968 36.8593 12.2894C37.026 12.0803 37.2335 11.9286 37.4818 11.8342C37.7306 11.7402 37.987 11.7136 38.2511 11.7543C38.516 11.795 38.7543 11.8997 38.966 12.0684C39.0687 12.1503 39.1607 12.2467 39.2419 12.3577C39.3236 12.4682 39.3891 12.5867 39.4384 12.7135C39.4887 12.8401 39.5215 12.9712 39.5369 13.1069C39.5498 13.2508 39.5334 13.4201 39.4876 13.6145Z" fill="#917F6A"/>
<path d="M38.7125 15.743L40.7833 13.8099L41.1417 14.1938L39.0708 16.1269L38.7125 15.743Z" fill="#917F6A"/>
<path d="M41.407 17.8655L41.7568 18.3652C41.6404 18.3833 41.5493 18.3929 41.4835 18.3941C41.4178 18.3952 41.342 18.3889 41.2562 18.3752C41.1299 18.3505 41.0086 18.3107 40.8924 18.2558C40.7767 18.2004 40.6698 18.1313 40.5717 18.0485C40.473 17.966 40.3874 17.8728 40.3147 17.7689C40.1644 17.5542 40.0791 17.3156 40.059 17.053C40.0392 16.7911 40.0846 16.5404 40.1952 16.3009C40.3068 16.0617 40.4716 15.8658 40.6895 15.7132C40.9053 15.5622 41.1435 15.4756 41.404 15.4537C41.6648 15.4323 41.9137 15.4758 42.1507 15.5841C42.3877 15.6924 42.581 15.8534 42.7306 16.0671C42.8432 16.228 42.9208 16.4058 42.9633 16.6006C43.0067 16.7955 43.0113 16.9888 42.977 17.1804C42.9647 17.2603 42.9458 17.3329 42.9201 17.3982C42.8948 17.464 42.8529 17.5507 42.7943 17.6582L42.4519 17.169C42.471 17.0795 42.4817 17.0054 42.484 16.9469C42.4869 16.888 42.4823 16.823 42.4703 16.752C42.4452 16.6028 42.3931 16.4717 42.314 16.3587C42.2187 16.2225 42.0938 16.1207 41.9391 16.0533C41.7849 15.9865 41.6229 15.9612 41.453 15.9774C41.2837 15.9933 41.128 16.051 40.9859 16.1504C40.8449 16.2491 40.7378 16.3762 40.6646 16.5317C40.5924 16.6873 40.5611 16.8495 40.571 17.0182C40.5817 17.1871 40.6344 17.339 40.729 17.4741C40.7975 17.5721 40.8845 17.6539 40.9898 17.7197C41.0554 17.7596 41.1164 17.7894 41.1728 17.8093C41.2302 17.8293 41.3082 17.8481 41.407 17.8655Z" fill="#917F6A"/>
<path d="M41.3032 19.1195L44.3707 19.0481L44.5373 19.4238L42.4307 21.6614L42.1966 21.1335L42.7398 20.5574L42.3322 19.6386L41.537 19.6464L41.3032 19.1195ZM42.8048 19.5788L43.0849 20.2103L43.7586 19.5492L43.8498 19.4948L43.7486 19.5267L42.8048 19.5788Z" fill="#917F6A"/>
<path d="M42.5438 22.2057L45.2781 21.4648L45.4155 21.9717L43.1719 22.5796L43.3976 23.4128L42.9069 23.5457L42.5438 22.2057Z" fill="#917F6A"/>
<path d="M43.1902 25.3381L46.0127 25.0961L46.0576 25.6194L43.235 25.8614L43.1902 25.3381Z" fill="#917F6A"/>
<path d="M43.3006 26.6574L46.1301 26.7968L46.1011 27.3853L44.0248 28.4393L43.9272 28.4581L46.0431 28.5624L46.0171 29.0908L43.1876 28.9515L43.2164 28.3669L45.2809 27.3123L45.3789 27.2856L43.2748 27.1819L43.3006 26.6574Z" fill="#917F6A"/>
<path d="M43.8685 29.6428L43.7524 30.1792C43.6424 30.1628 43.5486 30.1815 43.4711 30.2353C43.3934 30.2897 43.3427 30.3722 43.3188 30.4826C43.2957 30.5892 43.3101 30.684 43.362 30.7672C43.4146 30.8505 43.4922 30.9032 43.5949 30.9255C43.715 30.9514 43.8201 30.9302 43.9102 30.8616C43.9882 30.8025 44.0715 30.6969 44.1602 30.5447C44.1931 30.4893 44.2129 30.455 44.2198 30.4417C44.2774 30.3526 44.3296 30.2839 44.3764 30.2356C44.4695 30.1408 44.5811 30.0736 44.7114 30.0339C44.8421 29.9949 44.9733 29.9897 45.1049 30.0182C45.2455 30.0486 45.368 30.1131 45.4724 30.2116C45.5774 30.3103 45.6511 30.4294 45.6935 30.569C45.7365 30.7087 45.7424 30.8508 45.7111 30.9952C45.6786 31.1455 45.6158 31.274 45.5228 31.3809C45.4303 31.4886 45.3163 31.5651 45.1808 31.6104C45.0452 31.6563 44.9014 31.6669 44.7495 31.6421L44.8639 31.1133C44.9542 31.1248 45.0311 31.1079 45.0947 31.0625C45.1588 31.0179 45.2003 30.9519 45.2192 30.8646C45.2367 30.7837 45.224 30.712 45.181 30.6496C45.1385 30.588 45.0749 30.5481 44.9902 30.5297C44.908 30.5119 44.8361 30.5229 44.7744 30.5627C44.7125 30.6031 44.6448 30.6832 44.5711 30.803L44.506 30.9129C44.401 31.0844 44.2996 31.2097 44.2019 31.2887C44.0006 31.4488 43.7731 31.5014 43.5195 31.4465C43.3564 31.4112 43.2154 31.339 43.0966 31.2299C42.9782 31.1217 42.8944 30.99 42.8453 30.8348C42.7969 30.6798 42.7902 30.5211 42.8254 30.3587C42.8819 30.0974 43.0203 29.8974 43.2405 29.7589C43.3381 29.696 43.4404 29.6563 43.5475 29.6399C43.6336 29.6209 43.7406 29.6218 43.8685 29.6428Z" fill="#917F6A"/>
<path d="M42.4263 32.1397L44.6184 32.913L44.7915 32.4223L45.271 32.5915L44.7475 34.0755L44.268 33.9063L44.4437 33.4083L42.2516 32.635L42.4263 32.1397Z" fill="#917F6A"/>
<path d="M41.8694 33.5838L44.4367 34.7815L44.2146 35.2574L41.6473 34.0597L41.8694 33.5838Z" fill="#917F6A"/>
<path d="M41.1392 34.9985L43.1298 36.1988L43.3984 35.7533L43.8338 36.0158L43.0212 37.3634L42.5858 37.1009L42.8585 36.6486L40.868 35.4483L41.1392 34.9985Z" fill="#917F6A"/>
<path d="M42.5469 38.0752L42.2209 38.4864L40.837 37.3888C40.7455 37.3162 40.6801 37.2681 40.641 37.2446C40.6023 37.2215 40.5569 37.2038 40.5045 37.1917C40.4231 37.174 40.3446 37.1779 40.269 37.2034C40.1935 37.2289 40.1318 37.2718 40.0841 37.332C40.0401 37.3875 40.0118 37.4527 39.9994 37.5274C39.9876 37.6026 39.9943 37.6729 40.0195 37.7382C40.0396 37.7942 40.0686 37.8437 40.1067 37.8865C40.1448 37.9293 40.2104 37.9876 40.3035 38.0614L41.6873 39.159L41.3588 39.5732L39.975 38.4756C39.8279 38.359 39.7194 38.2528 39.6495 38.1572C39.5801 38.0619 39.532 37.9546 39.5052 37.8353C39.4737 37.6965 39.4742 37.5527 39.5066 37.4042C39.5386 37.2561 39.5968 37.1289 39.6812 37.0224C39.7607 36.9221 39.8661 36.8394 39.9974 36.7743C40.1282 36.7097 40.2637 36.6731 40.4038 36.6644C40.5326 36.6593 40.6532 36.68 40.7655 36.7264C40.8778 36.7727 41.0104 36.8565 41.1631 36.9776L42.5469 38.0752Z" fill="#917F6A"/>
<path d="M38.4153 38.5894L40.0158 40.2725L40.3926 39.9142L40.7426 40.2824L39.6032 41.3659L39.2532 40.9977L39.6356 40.6341L38.0351 38.951L38.4153 38.5894Z" fill="#917F6A"/>
<path d="M37.2412 39.6298L38.9189 41.9095L37.6946 42.8105L37.3935 42.4014L38.1952 41.8114L37.8083 41.2857L37.0423 41.8494L36.7411 41.4402L37.5071 40.8765L37.1197 40.35L36.318 40.9399L36.0169 40.5308L37.2412 39.6298Z" fill="#917F6A"/>
</svg>