 <svg style="width:60px;" xmlns:svg="http://www.w3.org/2000/svg" xmlns="http://www.w3.org/2000/svg" version="1.1" viewBox="0 0 368 368"><!-- qr code -->
	  <path x="0" y="0" width="100%" height="100%"  d="m 16,16 0,16 0,16 0,16 0,16 0,16 0,16 0,16 16,0 16,0 16,0 16,0 16,0 16,0 16,0 0,-16 0,-16 0,-16 0,-16 0,-16 0,-16 0,-16 -16,0 -16,0 -16,0 -16,0 -16,0 -16,0 -16,0 z m 128,0 0,16 0,16 16,0 0,-16 16,0 0,-16 -16,0 -16,0 z m 32,16 0,16 16,0 0,-16 -16,0 z m 16,16 0,16 16,0 16,0 0,-16 0,-16 0,-16 -16,0 0,16 0,16 -16,0 z m 0,16 -16,0 -16,0 -16,0 0,16 16,0 16,0 0,16 -16,0 0,16 16,0 0,16 16,0 0,-16 16,0 0,16 -16,0 0,16 -16,0 0,16 16,0 16,0 0,16 16,0 0,-16 0,-16 0,-16 0,-16 0,-16 -16,0 0,-16 -16,0 0,-16 z m 16,112 -16,0 0,16 -16,0 0,16 0,16 16,0 0,16 0,16 -16,0 -16,0 0,-16 16,0 0,-16 -16,0 0,-16 0,-16 -16,0 0,-16 16,0 0,16 16,0 0,-16 0,-16 -16,0 -16,0 0,-16 -16,0 -16,0 -16,0 0,16 -16,0 0,16 -16,0 0,-16 16,0 0,-16 -16,0 -16,0 0,16 -16,0 0,16 0,16 0,16 16,0 0,-16 16,0 16,0 16,0 0,-16 16,0 0,-16 16,0 0,16 -16,0 0,16 16,0 0,16 -16,0 0,16 16,0 16,0 0,16 0,16 0,16 16,0 0,16 16,0 16,0 16,0 0,16 -16,0 -16,0 -16,0 0,-16 -16,0 0,16 0,16 16,0 0,16 -16,0 0,16 16,0 16,0 0,-16 16,0 0,16 16,0 16,0 16,0 16,0 0,-16 16,0 0,16 16,0 16,0 16,0 0,-16 -16,0 -16,0 0,-16 -16,0 0,-16 -16,0 0,16 -16,0 -16,0 0,16 -16,0 0,-16 16,0 0,-16 0,-16 0,-16 16,0 0,-16 -16,0 -16,0 0,-16 16,0 0,-16 0,-16 0,-16 -16,0 0,-16 z m 48,128 0,-16 -16,0 0,16 16,0 z m 32,16 16,0 16,0 0,-16 -16,0 -16,0 0,16 z m 32,-16 16,0 0,-16 0,-16 0,-16 0,-16 -16,0 -16,0 -16,0 0,-16 -16,0 0,16 -16,0 0,16 0,16 16,0 0,-16 16,0 0,16 0,16 16,0 16,0 0,16 z m -48,-80 0,-16 -16,0 -16,0 0,16 16,0 16,0 z m 16,0 16,0 0,-16 0,-16 0,-16 16,0 0,16 16,0 0,16 16,0 0,-16 0,-16 -16,0 0,-16 16,0 0,-16 -16,0 -16,0 0,16 -16,0 0,-16 -16,0 0,16 -16,0 0,16 16,0 0,16 0,16 0,16 z m -16,-48 -16,0 0,16 16,0 0,-16 z m 64,32 -16,0 0,16 16,0 0,-16 z m -224,0 0,-16 -16,0 0,16 16,0 z m -16,0 -16,0 -16,0 -16,0 0,16 16,0 16,0 16,0 0,-16 z m -64,0 -16,0 0,16 16,0 0,-16 z m 0,-48 0,-16 -16,0 0,16 16,0 z m 112,-16 16,0 0,-16 0,-16 -16,0 0,16 0,16 z m 96,-128 0,16 0,16 0,16 0,16 0,16 0,16 0,16 16,0 16,0 16,0 16,0 16,0 16,0 16,0 0,-16 0,-16 0,-16 0,-16 0,-16 0,-16 0,-16 -16,0 -16,0 -16,0 -16,0 -16,0 -16,0 -16,0 z m -208,16 16,0 16,0 16,0 16,0 16,0 0,16 0,16 0,16 0,16 0,16 -16,0 -16,0 -16,0 -16,0 -16,0 0,-16 0,-16 0,-16 0,-16 0,-16 z m 224,0 16,0 16,0 16,0 16,0 16,0 0,16 0,16 0,16 0,16 0,16 -16,0 -16,0 -16,0 -16,0 -16,0 0,-16 0,-16 0,-16 0,-16 0,-16 z m -208,16 0,16 0,16 0,16 16,0 16,0 16,0 0,-16 0,-16 0,-16 -16,0 -16,0 -16,0 z m 224,0 0,16 0,16 0,16 16,0 16,0 16,0 0,-16 0,-16 0,-16 -16,0 -16,0 -16,0 z m -32,96 0,16 16,0 0,-16 -16,0 z m -224,96 0,16 0,16 0,16 0,16 0,16 0,16 0,16 16,0 16,0 16,0 16,0 16,0 16,0 16,0 0,-16 0,-16 0,-16 0,-16 0,-16 0,-16 0,-16 -16,0 -16,0 -16,0 -16,0 -16,0 -16,0 -16,0 z m 16,16 16,0 16,0 16,0 16,0 16,0 0,16 0,16 0,16 0,16 0,16 -16,0 -16,0 -16,0 -16,0 -16,0 0,-16 0,-16 0,-16 0,-16 0,-16 z m 16,16 0,16 0,16 0,16 16,0 16,0 16,0 0,-16 0,-16 0,-16 -16,0 -16,0 -16,0 z m 288,48 0,16 16,0 0,-16 -16,0 z" id="path3093" style="fill:#000000;stroke:none"/>
   </svg>